# xmcd CD database file generated by OrangeCD 5.2
#
# Track frame offsets:
#	150
#	13239
#	25311
#	38275
#	50817
#	64796
#	77533
#	88128
#	99533
#	110868
#	121535
#	134207
#	146407
#	156514
#	167519
#	180511
#	198576
#	212423
#	222975
#	234735
#
# Disc length: 3299 seconds
#
# Revision: 6
# Processed by: cddbd v1.5PL3 Copyright (c) Steve Scherf et al.
# Submitted via: OrangeCD 5.2
#
DISCID=1e0ce114
DTITLE=Howlin' Wolf - His Best: Chess 20th Anniversay Collection
DYEAR=1997
DGENRE=Blues
TTITLE0=Moanin' At Midnight
TTITLE1=How Many More Years
TTITLE2=Evil
TTITLE3=Forty-Four
TTITLE4=Smokestack Lightnin'
TTITLE5=I Asked For Water
TTITLE6=Who's Been Talkin'
TTITLE7=Sitting On Top Of The World
TTITLE8=Howlin' For My Darling
TTITLE9=Wang Dang Doodle
TTITLE10=Back Door Man
TTITLE11=Spoonful
TTITLE12=Shake For Me
TTITLE13=The Red Rooster
TTITLE14=I Ain't Superstitious
TTITLE15=Goin' Down Slow
TTITLE16=Three Hundred Pounds Of Joy
TTITLE17=Hidden Charms
TTITLE18=Built For Comfort
TTITLE19=Killing Floor
EXTD=YEAR: 1961 ID3G: 0
EXTT0=
EXTT1=
EXTT2=
EXTT3=
EXTT4=
EXTT5=
EXTT6=
EXTT7=
EXTT8=
EXTT9=
EXTT10=
EXTT11=
EXTT12=
EXTT13=
EXTT14=
EXTT15=
EXTT16=
EXTT17=
EXTT18=
EXTT19=
PLAYORDER=
